<svg xmlns="http://www.w3.org/2000/svg" xmlns:xlink="http://www.w3.org/1999/xlink" viewBox="0 0 64 64"><defs><linearGradient id="a" x1="32" x2="32" y1="62.357" y2="-4.649" gradientUnits="userSpaceOnUse"><stop offset="0" stop-color="#e93e3a"/><stop offset=".352" stop-color="#ed683c"/><stop offset=".706" stop-color="#f3903f"/><stop offset="1" stop-color="#fdc70c"/></linearGradient><linearGradient id="b" x1="25" x2="25" y1="62.357" y2="-4.649" xlink:href="#a"/><linearGradient id="c" x1="29" x2="29" y1="62.357" y2="-4.649" xlink:href="#a"/><linearGradient id="d" x1="21.5" x2="21.5" y1="62.357" y2="-4.649" xlink:href="#a"/><linearGradient id="e" x1="19" x2="19" y1="62.357" y2="-4.649" xlink:href="#a"/><linearGradient id="f" x1="44" x2="44" y1="62.357" y2="-4.649" xlink:href="#a"/><linearGradient id="g" x1="48" x2="48" y1="62.357" y2="-4.649" xlink:href="#a"/><linearGradient id="h" x1="45" x2="45" y1="62.357" y2="-4.649" xlink:href="#a"/><linearGradient id="i" x1="41" x2="41" y1="62.357" y2="-4.649" xlink:href="#a"/><linearGradient id="j" x1="35" x2="35" y1="62.357" y2="-4.649" xlink:href="#a"/><linearGradient id="k" x1="30" x2="30" y1="62.357" y2="-4.649" xlink:href="#a"/></defs><g data-name="Game Entertainment"><path fill="url(#a)" d="M47 50H21v2H47v5a3 3 0 0 1-3 3H20a3 3 0 0 1-3-3V43.988H15V57a5.006 5.006 0 0 0 5 5H44a5.006 5.006 0 0 0 5-5V43.988H47zM17 12H43V10H17V7a3 3 0 0 1 3-3H44a3 3 0 0 1 3 3V21.94h2V7a5.006 5.006 0 0 0-5-5H20a5.006 5.006 0 0 0-5 5V21.94h2z"/><rect width="2" height="2" x="31" y="55" fill="url(#a)"/><rect width="2" height="2" x="24" y="6" fill="url(#b)"/><rect width="2" height="2" x="28" y="6" fill="url(#c)"/><path fill="url(#d)" d="M19,15v4h2V16h3V14H20A1,1,0,0,0,19,15Z"/><path fill="url(#a)" d="M45,24H36V22H34V20h4a2,2,0,0,0,2-2V15H38v3H34a2,2,0,0,0-2,2v2H30v2H19a9,9,0,1,0,8.49,12h9.02A9,9,0,1,0,45,24Zm0,16a7,7,0,0,1-6.782-5.25A1,1,0,0,0,37.25,34H26.75a1,1,0,0,0-.968.75A7,7,0,1,1,19,26H45a7,7,0,0,1,0,14Z"/><polygon fill="url(#e)" points="20 30 18 30 18 32 16 32 16 34 18 34 18 36 20 36 20 34 22 34 22 32 20 32 20 30"/><rect width="2" height="2" x="43" y="30" fill="url(#f)"/><rect width="2" height="2" x="47" y="32" fill="url(#g)"/><rect width="2" height="2" x="44" y="34" fill="url(#h)"/><rect width="2" height="2" x="40" y="32" fill="url(#i)"/><rect width="2" height="2" x="34" y="30" fill="url(#j)"/><rect width="2" height="2" x="29" y="30" fill="url(#k)"/></g></svg>